# Blender 4.3.2
# www.blender.org
mtllib untitled.mtl
o Cube
v 1.000000 1.000000 0.032125
v 1.000000 -1.000000 0.032125
v -1.000000 1.000000 0.032125
v -1.000000 -1.000000 0.032125
v -1.000000 -1.000000 2.491919
v -1.000000 1.000000 2.491919
v 1.000000 1.000000 2.491919
v 1.000000 -1.000000 2.491919
v 0.222500 0.222500 -7.440028
v 1.000000 1.000000 -4.535227
v 0.520036 0.520036 -7.218913
v 0.772275 0.772275 -6.589231
v 0.940816 0.940816 -5.646846
v 0.222500 -0.222500 -7.440028
v 1.000000 -1.000000 -4.535227
v 0.520036 -0.520036 -7.218913
v 0.772275 -0.772275 -6.589231
v 0.940816 -0.940816 -5.646846
v -0.222500 0.222500 -7.440028
v -1.000000 1.000000 -4.535227
v -0.520036 0.520036 -7.218913
v -0.772275 0.772275 -6.589231
v -0.940816 0.940816 -5.646846
v -0.222500 -0.222500 -7.440028
v -1.000000 -1.000000 -4.535227
v -0.520036 -0.520036 -7.218913
v -0.772275 -0.772275 -6.589231
v -0.940816 -0.940816 -5.646846
v -3.146145 -1.000000 0.032125
v -3.315585 -0.830560 0.665165
v -3.265957 -0.950372 0.217538
v -3.315585 0.830560 0.665165
v -3.146145 1.000000 0.032125
v -3.265957 0.950372 0.217538
v -3.315585 -0.830560 1.858878
v -3.146145 -1.000000 2.491919
v -3.265957 -0.950372 2.306506
v -3.146145 1.000000 2.491919
v -3.315585 0.830560 1.858878
v -3.265957 0.950372 2.306506
v 2.918891 1.000000 0.032125
v 3.201815 0.717077 1.089149
v 3.118949 0.917134 0.341720
v 3.201815 -0.717077 1.089149
v 2.918891 -1.000000 0.032125
v 3.118949 -0.917134 0.341720
v 3.201815 0.717077 1.434895
v 2.918891 1.000000 2.491919
v 3.118949 0.917134 2.182323
v 2.918891 -1.000000 2.491919
v 3.201815 -0.717077 1.434895
v 3.118949 -0.917134 2.182323
vn -0.0000 -1.0000 -0.0000
vn -0.0000 1.0000 -0.0000
vn -1.0000 -0.0000 -0.0000
vn 1.0000 -0.0000 -0.0000
vn -0.0000 -0.0000 1.0000
vn -0.0000 -0.9986 -0.0532
vn -0.0000 -0.9844 -0.1761
vn -0.0000 -0.9283 -0.3719
vn -0.0000 -0.5965 -0.8026
vn 0.9986 -0.0000 -0.0532
vn 0.9844 -0.0000 -0.1761
vn 0.9283 -0.0000 -0.3719
vn 0.5965 -0.0000 -0.8026
vn -0.5965 -0.0000 -0.8026
vn -0.9283 -0.0000 -0.3719
vn -0.9844 -0.0000 -0.1761
vn -0.9986 -0.0000 -0.0532
vn -0.0000 0.9986 -0.0532
vn -0.0000 0.9844 -0.1761
vn -0.0000 0.9283 -0.3719
vn -0.0000 0.5965 -0.8026
vn -0.0000 -0.0000 -1.0000
vn -0.9939 -0.0000 -0.1102
vn -0.8399 -0.0000 -0.5427
vn -0.8399 -0.0000 0.5427
vn -0.9939 -0.0000 0.1102
vn -0.3827 -0.9239 -0.0000
vn -0.9239 -0.3827 -0.0000
vn -0.3827 0.9239 -0.0000
vn -0.9239 0.3827 -0.0000
vn 0.9939 -0.0000 -0.1102
vn 0.8399 -0.0000 -0.5427
vn 0.8399 -0.0000 0.5427
vn 0.9939 -0.0000 0.1102
vn 0.9239 -0.3827 -0.0000
vn 0.3827 -0.9239 -0.0000
vn 0.9239 0.3827 -0.0000
vn 0.3827 0.9239 -0.0000
vt 0.125000 0.597188
vt 0.375000 0.597188
vt 0.375000 0.750000
vt 0.125000 0.750000
vt 0.875000 0.750000
vt 0.375000 0.000000
vt 0.625000 0.000000
vt 0.625000 0.152812
vt 0.375000 0.152812
vt 0.625000 0.597188
vt 0.875000 0.597188
vt 0.625000 0.750000
vt 0.625000 1.000000
vt 0.375000 1.000000
vt 0.603820 0.000000
vt 0.396180 0.000000
vt 0.410365 0.750000
vt 0.589635 0.750000
vt 0.132398 0.559996
vt 0.367602 0.559996
vt 0.153466 0.500000
vt 0.346534 0.500000
vt 0.375000 0.471534
vt 0.375000 0.278466
vt 0.434995 0.309995
vt 0.434995 0.440005
vt 0.472188 0.347188
vt 0.472188 0.402812
vt 0.382398 0.559996
vt 0.617602 0.559996
vt 0.403466 0.500000
vt 0.596534 0.500000
vt 0.565005 0.440005
vt 0.527812 0.402812
vt 0.527812 0.347188
vt 0.565005 0.309995
vt 0.403466 0.250000
vt 0.596534 0.250000
vt 0.382398 0.190005
vt 0.617602 0.190005
vt 0.632398 0.559996
vt 0.867602 0.559996
vt 0.653466 0.500000
vt 0.846534 0.500000
vt 0.625000 0.278466
vt 0.625000 0.471534
vt 0.618797 0.000000
vt 0.381203 0.000000
vt 0.618797 1.000000
vt 0.381203 1.000000
vt 0.381203 0.000000
vt 0.380179 0.750000
vt 0.619821 0.750000
s 0
usemtl Material
f 25/1/1 15/2/1 2/3/1 4/4/1
f 6/5/2 3/5/2 33/5/2 38/5/2
f 4/6/3 3/7/3 20/8/3 25/9/3
f 10/10/2 20/11/2 3/5/2 1/12/2
f 15/2/4 10/10/4 1/12/4 2/3/4
f 8/3/5 7/12/5 6/13/5 5/14/5
f 4/4/1 2/3/1 8/3/1 5/4/1
f 1/12/2 3/5/2 6/5/2 7/12/2
f 8/3/1 2/3/1 45/3/1 50/3/1
f 4/4/1 5/4/1 36/4/1 29/4/1
f 32/15/3 30/16/3 35/16/3 39/15/3
f 5/14/5 6/13/5 38/13/5 36/14/5
f 1/12/2 7/12/2 48/12/2 41/12/2
f 44/17/4 42/18/4 47/18/4 51/17/4
f 7/12/5 8/3/5 50/3/5 48/12/5
f 15/2/6 25/1/6 28/19/6 18/20/6
f 18/20/7 28/19/7 27/21/7 17/22/7
f 17/23/8 27/24/8 26/25/8 16/26/8
f 16/26/9 26/25/9 24/27/9 14/28/9
f 10/10/10 15/2/10 18/29/10 13/30/10
f 13/30/11 18/29/11 17/31/11 12/32/11
f 12/32/12 17/31/12 16/26/12 11/33/12
f 11/33/13 16/26/13 14/28/13 9/34/13
f 19/35/14 24/27/14 26/25/14 21/36/14
f 21/36/15 26/25/15 27/37/15 22/38/15
f 22/38/16 27/37/16 28/39/16 23/40/16
f 23/40/17 28/39/17 25/9/17 20/8/17
f 20/11/18 10/10/18 13/41/18 23/42/18
f 23/42/19 13/41/19 12/43/19 22/44/19
f 22/45/20 12/46/20 11/33/20 21/36/20
f 21/36/21 11/33/21 9/34/21 19/35/21
f 24/27/22 19/35/22 9/34/22 14/28/22
f 30/16/23 32/15/23 34/47/23 31/48/23
f 31/48/24 34/47/24 33/7/24 29/6/24
f 36/14/25 38/13/25 40/49/25 37/50/25
f 37/51/26 40/47/26 39/15/26 35/16/26
f 29/4/27 36/4/27 37/4/27 31/4/27
f 31/6/28 37/6/28 35/16/28 30/16/28
f 38/5/29 33/5/29 34/5/29 40/5/29
f 40/7/30 34/7/30 32/15/30 39/15/30
f 3/7/22 4/6/22 29/6/22 33/7/22
f 42/18/31 44/17/31 46/52/31 43/53/31
f 43/53/32 46/52/32 45/3/32 41/12/32
f 48/12/33 50/3/33 52/52/33 49/53/33
f 49/53/34 52/52/34 51/17/34 47/18/34
f 44/17/35 51/17/35 52/52/35 46/52/35
f 46/52/36 52/52/36 50/3/36 45/3/36
f 47/18/37 42/18/37 43/53/37 49/53/37
f 49/53/38 43/53/38 41/12/38 48/12/38
f 2/3/22 1/12/22 41/12/22 45/3/22
